<svg width="16px" height="16px" viewBox="0 0 16 16" version="1.1" xmlns="http://www.w3.org/2000/svg" xmlns:xlink="http://www.w3.org/1999/xlink">
    <!-- Generator: Sketch 47 (45396) - http://www.bohemiancoding.com/sketch -->
    <title>个人nav_Shape</title>
    <desc>Created with Sketch.</desc>
    <defs></defs>
    <g id="Page-1" stroke="none" stroke-width="1" fill="none" fill-rule="evenodd">
        <g id="2_资讯_详情页_2" transform="translate(-1459.000000, -22.000000)" fill-rule="nonzero" fill="#333333">
            <g id="登录注册" transform="translate(1459.000000, 20.000000)">
                <g id="个人" transform="translate(0.000000, 2.000000)">
                    <path d="M13.4854857,9.5546875 C13.4854857,9.3 13.301181,9.0921875 13.1121905,8.946875 L13.0762667,8.9125 C12.4499429,8.4375 11.7955048,7.9859375 11.0442286,7.7046875 C12.0001143,6.9015625 12.6092571,5.7109375 12.6092571,4.3796875 C12.6092571,1.9609375 10.6053333,0 8.1344,0 C5.66502857,0 3.66110476,1.9609375 3.66110476,4.3796875 C3.66110476,5.7109375 4.27024762,6.9 5.22613333,7.7046875 C2.17417143,8.8515625 0.00156190476,11.740625 0,15.134375 C0.00156190476,15.575 0.198361905,15.9015625 0.645066667,15.9015625 C1.09645714,15.9015625 1.12769524,15.584375 1.12925714,15.146875 C1.12925714,11.6328125 3.28624762,8.3140625 8.1359619,8.3921875 C9.60727619,8.415625 11.331619,8.9703125 12.3843429,9.828125 C12.6701714,10.0609375 12.7326476,10.0640625 12.8607238,10.1 L12.9232,10.10625 C13.3730286,10.10625 13.4854857,9.99375 13.4854857,9.5546875 Z M4.71382857,4.3796875 C4.71382857,2.84375 5.98365714,1.04375 8.14064762,1.04375 C10.6475048,1.04375 11.5674667,2.8609375 11.5674667,4.3984375 C11.5659048,5.9375 10.1070857,7.5984375 8.1359619,7.540625 C5.82590476,7.5359375 4.71382857,5.9171875 4.71382857,4.3796875 Z M10.4413333,12.8625 L14.7818667,12.8625 C15.2316952,12.8625 15.595619,12.6515625 15.595619,12.2125 C15.595619,11.771875 15.2316952,11.6046875 14.7818667,11.6046875 L10.4413333,11.6046875 C9.99150476,11.6046875 9.62758095,11.771875 9.62758095,12.2125 C9.62758095,12.653125 9.99150476,12.8625 10.4413333,12.8625 Z M10.4413333,14.8046875 C9.99150476,14.8046875 9.62758095,14.9609375 9.62758095,15.4 C9.62758095,15.840625 9.99150476,16 10.4413333,16 L14.7818667,16 C15.2316952,16 15.595619,15.8390625 15.595619,15.4 C15.5940571,14.959375 15.2301333,14.8046875 14.7803048,14.8046875 L10.4413333,14.8046875 Z" id="Shape"></path>
                </g>
            </g>
        </g>
    </g>
</svg>